<?xml version="1.0" encoding="UTF-8" standalone="no"?>
<!DOCTYPE svg PUBLIC "-//W3C//DTD SVG 1.1//EN" "http://www.w3.org/Graphics/SVG/1.1/DTD/svg11.dtd">
<svg width="100%" height="100%" viewBox="0 0 369 206" version="1.1" xmlns="http://www.w3.org/2000/svg" xmlns:xlink="http://www.w3.org/1999/xlink" xml:space="preserve" xmlns:serif="http://www.serif.com/" style="fill-rule:evenodd;clip-rule:evenodd;stroke-linejoin:round;stroke-miterlimit:2;">
    <g transform="matrix(1,0,0,1,-11581.892857,-3688.310757)">
        <g transform="matrix(1.833736,0,0,1.833736,6135.544536,2406.358407)">
            <path d="M2976.082,699.093C2977.749,699.093 2979.166,699.676 2980.332,700.843C2981.499,702.01 2982.082,703.426 2982.082,705.093C2982.082,706.76 2981.466,708.176 2980.232,709.343C2978.999,710.51 2977.616,711.093 2976.082,711.093C2974.549,711.093 2973.166,710.51 2971.932,709.343C2970.699,708.176 2970.082,706.76 2970.082,705.093C2970.082,703.426 2970.666,702.01 2971.832,700.843C2972.999,699.676 2974.416,699.093 2976.082,699.093Z" style="fill:rgb(245,245,242);fill-rule:nonzero;"/>
            <path d="M3070.482,699.093C3072.149,699.093 3073.566,699.676 3074.732,700.843C3075.899,702.01 3076.482,703.426 3076.482,705.093C3076.482,706.76 3075.866,708.176 3074.632,709.343C3073.399,710.51 3072.016,711.093 3070.482,711.093C3068.949,711.093 3067.566,710.51 3066.332,709.343C3065.099,708.176 3064.482,706.76 3064.482,705.093C3064.482,703.426 3065.066,702.01 3066.232,700.843C3067.399,699.676 3068.816,699.093 3070.482,699.093Z" style="fill:rgb(245,245,242);fill-rule:nonzero;"/>
            <path d="M2976.082,799.093C2977.749,799.093 2979.166,799.676 2980.332,800.843C2981.499,802.01 2982.082,803.426 2982.082,805.093C2982.082,806.76 2981.466,808.176 2980.232,809.343C2978.999,810.51 2977.616,811.093 2976.082,811.093C2974.549,811.093 2973.166,810.51 2971.932,809.343C2970.699,808.176 2970.082,806.76 2970.082,805.093C2970.082,803.426 2970.666,802.01 2971.832,800.843C2972.999,799.676 2974.416,799.093 2976.082,799.093Z" style="fill:rgb(245,245,242);fill-rule:nonzero;"/>
            <path d="M3070.482,799.093C3072.149,799.093 3073.566,799.676 3074.732,800.843C3075.899,802.01 3076.482,803.426 3076.482,805.093C3076.482,806.76 3075.866,808.176 3074.632,809.343C3073.399,810.51 3072.016,811.093 3070.482,811.093C3068.949,811.093 3067.566,810.51 3066.332,809.343C3065.099,808.176 3064.482,806.76 3064.482,805.093C3064.482,803.426 3065.066,802.01 3066.232,800.843C3067.399,799.676 3068.816,799.093 3070.482,799.093Z" style="fill:rgb(245,245,242);fill-rule:nonzero;"/>
            <path d="M3164.882,799.093C3166.549,799.093 3167.966,799.676 3169.132,800.843C3170.299,802.01 3170.882,803.426 3170.882,805.093C3170.882,806.76 3170.266,808.176 3169.032,809.343C3167.799,810.51 3166.416,811.093 3164.882,811.093C3163.349,811.093 3161.966,810.51 3160.732,809.343C3159.499,808.176 3158.882,806.76 3158.882,805.093C3158.882,803.426 3159.466,802.01 3160.632,800.843C3161.799,799.676 3163.216,799.093 3164.882,799.093Z" style="fill:rgb(245,245,242);fill-rule:nonzero;"/>
        </g>
    </g>
</svg>
